<?xml version="1.0" encoding="iso-8859-1"?>
<!-- Generator: Adobe Illustrator 30.6.0, SVG Export Plug-In . SVG Version: 9.03 Build 0)  -->
<svg version="1.1" id="Calque_1" xmlns="http://www.w3.org/2000/svg" xmlns:xlink="http://www.w3.org/1999/xlink" x="0px" y="0px"
	 width="1664.641px" height="662.429px" viewBox="0 0 1664.641 662.429" enable-background="new 0 0 1664.641 662.429"
	 xml:space="preserve">
<g>
	<path d="M554.88,330.919c0-44.946,21.483-86.416,53.194-110.392h38.963c-35.957,32.723-53.693,67.184-53.693,110.15
		c0,43.208,17.736,77.911,53.693,110.378h-38.963C576.363,417.079,554.88,375.88,554.88,330.919z"/>
	<path d="M717.35,258.992h36.213v18.99C764.804,264.234,781.543,256,801.515,256c21.226,0,38.222,8.989,47.211,24.475
		C861.206,265.231,879.441,256,902.163,256c33.977,0,56.443,21.226,56.443,54.192v85.162h-35.957v-79.92
		c0-21.967-13.733-33.207-33.222-33.207c-13.99,0-25.97,5.983-34.461,15.485c0.755,3.989,1.254,7.992,1.254,12.479v85.162h-36.213
		v-79.92c0-21.967-12.992-33.207-31.469-33.207c-14.987,0-27.723,6.981-34.974,17.223v95.904H717.35V258.992z"/>
	<path d="M1109.76,330.677c0,44.946-21.483,86.402-53.194,110.378h-38.963c35.957-32.709,53.693-67.17,53.693-110.136
		c0-43.208-17.736-77.925-53.693-110.392h38.963C1088.278,244.503,1109.76,285.717,1109.76,330.677z"/>
</g>
<g>
</g>
<g>
</g>
<g>
</g>
<g>
</g>
<g>
</g>
<g>
</g>
<g>
</g>
<g>
</g>
<g>
</g>
<g>
</g>
<g>
</g>
<g>
</g>
<g>
</g>
<g>
</g>
<g>
</g>
</svg>
